<?xml version="1.0" encoding="UTF-8" standalone="no"?>
<svg
   width="24.369989"
   zoomAndPan="magnify"
   viewBox="0 0 18.277492 18.274898"
   height="24.366529"
   preserveAspectRatio="xMidYMid"
   version="1.0"
   id="svg20"
   sodipodi:docname="4.1.svg"
   xml:space="preserve"
   inkscape:version="1.2.1 (9c6d41e410, 2022-07-14)"
   xmlns:inkscape="http://www.inkscape.org/namespaces/inkscape"
   xmlns:sodipodi="http://sodipodi.sourceforge.net/DTD/sodipodi-0.dtd"
   xmlns="http://www.w3.org/2000/svg"
   xmlns:svg="http://www.w3.org/2000/svg"><sodipodi:namedview
     id="namedview22"
     pagecolor="#ffffff"
     bordercolor="#000000"
     borderopacity="0.25"
     inkscape:showpageshadow="2"
     inkscape:pageopacity="0.0"
     inkscape:pagecheckerboard="0"
     inkscape:deskcolor="#d1d1d1"
     showgrid="false"
     inkscape:zoom="5.6568542"
     inkscape:cx="5.9220193"
     inkscape:cy="11.313709"
     inkscape:window-width="1366"
     inkscape:window-height="699"
     inkscape:window-x="0"
     inkscape:window-y="0"
     inkscape:window-maximized="1"
     inkscape:current-layer="svg20" /><defs
     id="defs8"><clipPath
       id="e28c6fd4e6"><path
         d="M 9.195312,8.710938 H 20.804688 V 20.324219 H 9.195312 Z m 0,0"
         clip-rule="nonzero"
         id="path2" /></clipPath><clipPath
       id="45a8d43ebc"><path
         d="M 9.195312,9 H 20.804688 V 20 H 9.195312 Z m 0,0"
         clip-rule="nonzero"
         id="path5" /></clipPath></defs><path
     style="fill:#e6ad00;fill-opacity:1;stroke-width:0.0357397"
     d="m 8.8197258,18.253428 c -0.262879,-0.05525 -0.543402,-0.214536 -0.76232,-0.432849 -0.451524,-0.45028 -0.567663,-1.093586 -0.309363,-1.713615 0.07196,-0.172737 0.442291,-0.555811 3.4606812,-3.579769 L 14.588822,9.1408633 11.208724,5.7545313 C 8.1903338,2.7305741 7.8200038,2.3474997 7.7480428,2.1747632 c -0.2583,-0.6200298 -0.142161,-1.26333584 0.309363,-1.71361534 0.363587,-0.3625827 0.837287,-0.5208115 1.319814,-0.4408541 0.514685,0.085286 0.267944,-0.1396456 4.6484972,4.23762264 3.577813,3.5751309 4.020392,4.0294559 4.103602,4.2125149 0.19242,0.423318 0.19752,0.877866 0.01478,1.316878 -0.07213,0.173287 -0.494094,0.6077327 -4.051006,4.1708687 -2.183766,2.187588 -4.043544,4.024589 -4.1328392,4.082226 -0.08929,0.05764 -0.233444,0.129876 -0.32033,0.160531 -0.198398,0.07 -0.611208,0.09642 -0.820194,0.05249 z m -7.649904,-1.551233 c -0.77750295,-0.216688 -1.27551925,-1.012967 -1.14926065,-1.837554 0.060269,-0.39361 0.2007299,-0.65204 0.568416,-1.045809 C 1.1375596,13.231333 4.8516108,9.3124793 5.1291698,9.0282803 L 5.3961938,8.7548693 3.0775047,6.3116303 C 0.16013755,3.2375548 0.28507365,3.3745147 0.16491265,3.1187322 -0.14051455,2.4685795 -0.01403185,1.7049459 0.48081895,1.2114625 1.0055459,0.68818556 1.7455882,0.60486676 2.3610051,0.99977866 2.4707628,1.0702097 3.6338497,2.2686984 5.4613238,4.1944644 c 3.49121,3.6789869 3.375579,3.5529939 3.501415,3.8152079 0.294191,0.613033 0.192455,1.354151 -0.255795,1.863384 -0.288204,0.3274117 -6.0563131,6.3961627 -6.1911139,6.5138017 -0.3592516,0.313515 -0.8989065,0.439943 -1.3460081,0.315337 z"
     id="path1922" /></svg>
