<svg xmlns="http://www.w3.org/2000/svg" xmlns:xlink="http://www.w3.org/1999/xlink" width="40" zoomAndPan="magnify" viewBox="0 0 30 30.000001" height="40" preserveAspectRatio="xMidYMid meet" version="1.0"><defs><clipPath id="6bbe15099a"><path d="M 9.859375 8.710938 L 20.023438 8.710938 L 20.023438 20.324219 L 9.859375 20.324219 Z M 9.859375 8.710938 " clip-rule="nonzero"/></clipPath></defs><g clip-path="url(#6bbe15099a)"><path fill="#6c757d" d="M 18.796875 10.058594 L 18.648438 10.058594 L 18.648438 9.582031 C 18.648438 9.339844 18.5625 9.132812 18.394531 8.960938 C 18.222656 8.789062 18.019531 8.703125 17.78125 8.703125 C 17.539062 8.703125 17.335938 8.789062 17.167969 8.960938 C 16.996094 9.132812 16.910156 9.339844 16.910156 9.582031 L 16.910156 10.058594 L 12.972656 10.058594 L 12.972656 9.582031 C 12.972656 9.339844 12.886719 9.132812 12.71875 8.960938 C 12.546875 8.789062 12.34375 8.703125 12.105469 8.703125 C 11.863281 8.703125 11.660156 8.789062 11.492188 8.960938 C 11.320312 9.132812 11.234375 9.339844 11.234375 9.582031 L 11.234375 10.058594 L 11.085938 10.058594 C 10.925781 10.058594 10.769531 10.089844 10.621094 10.152344 C 10.472656 10.214844 10.339844 10.304688 10.226562 10.421875 C 10.113281 10.535156 10.023438 10.667969 9.964844 10.820312 C 9.902344 10.96875 9.871094 11.125 9.871094 11.289062 L 9.871094 19.085938 C 9.871094 19.25 9.902344 19.40625 9.964844 19.554688 C 10.027344 19.707031 10.113281 19.839844 10.226562 19.953125 C 10.339844 20.070312 10.472656 20.160156 10.621094 20.222656 C 10.769531 20.285156 10.925781 20.316406 11.085938 20.316406 L 18.796875 20.316406 C 18.957031 20.316406 19.113281 20.285156 19.261719 20.222656 C 19.410156 20.160156 19.542969 20.070312 19.65625 19.953125 C 19.769531 19.839844 19.859375 19.707031 19.921875 19.554688 C 19.980469 19.40625 20.011719 19.25 20.011719 19.085938 L 20.011719 11.289062 C 20.011719 11.125 19.980469 10.96875 19.921875 10.820312 C 19.859375 10.667969 19.769531 10.535156 19.65625 10.421875 C 19.542969 10.304688 19.410156 10.214844 19.261719 10.152344 C 19.113281 10.089844 18.957031 10.058594 18.796875 10.058594 Z M 17.355469 9.582031 C 17.355469 9.390625 17.441406 9.257812 17.617188 9.183594 C 17.792969 9.109375 17.949219 9.140625 18.082031 9.277344 C 18.164062 9.363281 18.207031 9.460938 18.207031 9.582031 L 18.207031 10.5625 C 18.207031 10.679688 18.164062 10.78125 18.082031 10.867188 C 18 10.949219 17.898438 10.992188 17.78125 10.992188 C 17.664062 10.992188 17.5625 10.949219 17.480469 10.867188 C 17.394531 10.78125 17.355469 10.679688 17.355469 10.5625 Z M 11.679688 9.582031 C 11.679688 9.390625 11.765625 9.257812 11.941406 9.183594 C 12.117188 9.109375 12.273438 9.140625 12.40625 9.277344 C 12.488281 9.363281 12.53125 9.460938 12.53125 9.582031 L 12.53125 10.5625 C 12.53125 10.679688 12.488281 10.78125 12.40625 10.867188 C 12.324219 10.949219 12.222656 10.992188 12.105469 10.992188 C 11.988281 10.992188 11.886719 10.949219 11.804688 10.867188 C 11.71875 10.78125 11.679688 10.679688 11.679688 10.5625 Z M 11.085938 10.507812 L 11.234375 10.507812 L 11.234375 10.5625 C 11.234375 10.804688 11.320312 11.011719 11.488281 11.183594 C 11.660156 11.351562 11.863281 11.4375 12.105469 11.4375 C 12.34375 11.4375 12.546875 11.351562 12.71875 11.183594 C 12.886719 11.011719 12.972656 10.804688 12.972656 10.5625 L 12.972656 10.507812 L 16.910156 10.507812 L 16.910156 10.5625 C 16.910156 10.804688 16.996094 11.011719 17.164062 11.183594 C 17.335938 11.351562 17.539062 11.4375 17.78125 11.4375 C 18.019531 11.4375 18.222656 11.351562 18.394531 11.183594 C 18.5625 11.011719 18.648438 10.804688 18.648438 10.5625 L 18.648438 10.507812 L 18.796875 10.507812 C 19.011719 10.507812 19.191406 10.582031 19.34375 10.738281 C 19.496094 10.890625 19.570312 11.074219 19.570312 11.289062 L 19.570312 12.136719 L 10.3125 12.136719 L 10.3125 11.289062 C 10.3125 11.074219 10.386719 10.890625 10.539062 10.738281 C 10.691406 10.585938 10.871094 10.507812 11.085938 10.507812 Z M 19.570312 19.085938 C 19.570312 19.300781 19.496094 19.488281 19.34375 19.640625 C 19.191406 19.792969 19.011719 19.867188 18.796875 19.867188 L 11.085938 19.867188 C 10.875 19.867188 10.691406 19.792969 10.539062 19.640625 C 10.390625 19.488281 10.3125 19.300781 10.3125 19.085938 L 10.3125 12.585938 L 19.570312 12.585938 Z M 19.570312 19.085938 " fill-opacity="1" fill-rule="nonzero"/></g><path fill="#6c757d" d="M 13.410156 18.601562 L 18.003906 18.601562 C 18.148438 18.601562 18.222656 18.527344 18.222656 18.378906 L 18.222656 13.734375 C 18.222656 13.585938 18.148438 13.511719 18.003906 13.511719 L 11.882812 13.511719 C 11.734375 13.511719 11.660156 13.585938 11.660156 13.734375 L 11.660156 18.378906 C 11.660156 18.527344 11.734375 18.601562 11.882812 18.601562 Z M 17.78125 16.605469 L 16.695312 16.605469 L 16.695312 15.507812 L 17.78125 15.507812 Z M 16.25 16.605469 L 15.164062 16.605469 L 15.164062 15.507812 L 16.25 15.507812 Z M 14.722656 16.605469 L 13.632812 16.605469 L 13.632812 15.507812 L 14.722656 15.507812 Z M 13.191406 16.605469 L 12.101562 16.605469 L 12.101562 15.507812 L 13.191406 15.507812 Z M 12.101562 17.054688 L 13.191406 17.054688 L 13.191406 18.15625 L 12.101562 18.15625 Z M 13.632812 17.054688 L 14.722656 17.054688 L 14.722656 18.15625 L 13.632812 18.15625 Z M 15.164062 17.054688 L 16.25 17.054688 L 16.25 18.15625 L 15.164062 18.15625 Z M 17.78125 18.15625 L 16.695312 18.15625 L 16.695312 17.054688 L 17.78125 17.054688 Z M 17.78125 15.058594 L 16.695312 15.058594 L 16.695312 13.960938 L 17.78125 13.960938 Z M 16.25 15.058594 L 15.164062 15.058594 L 15.164062 13.960938 L 16.25 13.960938 Z M 14.722656 15.058594 L 13.632812 15.058594 L 13.632812 13.960938 L 14.722656 13.960938 Z M 12.101562 13.960938 L 13.191406 13.960938 L 13.191406 15.058594 L 12.101562 15.058594 Z M 12.101562 13.960938 " fill-opacity="1" fill-rule="nonzero"/></svg>