<svg xmlns="http://www.w3.org/2000/svg" xmlns:xlink="http://www.w3.org/1999/xlink" width="40" zoomAndPan="magnify" viewBox="0 0 30 30.000001" height="40" preserveAspectRatio="xMidYMid meet" version="1.0"><defs><clipPath id="bb04438b46"><path d="M 12.347656 12.734375 L 16.4375 12.734375 L 16.4375 15.832031 L 12.347656 15.832031 Z M 12.347656 12.734375 " clip-rule="nonzero"/></clipPath></defs><g clip-path="url(#bb04438b46)"><path fill="#0dd0a0" d="M 16.292969 14.042969 C 15.941406 13.695312 15.589844 13.351562 15.238281 13.007812 C 14.90625 12.679688 14.390625 13.191406 14.726562 13.515625 C 14.867188 13.65625 15.011719 13.796875 15.15625 13.9375 L 12.730469 13.9375 C 12.261719 13.9375 12.257812 14.652344 12.726562 14.652344 L 15.15625 14.652344 C 15.011719 14.796875 14.867188 14.9375 14.722656 15.078125 C 14.390625 15.40625 14.90625 15.910156 15.242188 15.582031 C 15.59375 15.238281 15.945312 14.894531 16.296875 14.546875 C 16.4375 14.410156 16.433594 14.179688 16.292969 14.042969 Z M 16.292969 14.042969 " fill-opacity="1" fill-rule="nonzero"/></g></svg>