<?xml version="1.0" encoding="UTF-8" standalone="no"?>
<!-- Created with Inkscape (http://www.inkscape.org/) -->

<svg
   version="1.1"
   id="svg2"
   width="174.54315"
   height="140.39604"
   viewBox="0 0 174.54315 140.39604"
   sodipodi:docname="right-arrow-white.svg"
   xmlns:inkscape="http://www.inkscape.org/namespaces/inkscape"
   xmlns:sodipodi="http://sodipodi.sourceforge.net/DTD/sodipodi-0.dtd"
   xmlns="http://www.w3.org/2000/svg"
   xmlns:svg="http://www.w3.org/2000/svg">
  <defs
     id="defs6" />
  <sodipodi:namedview
     id="namedview4"
     pagecolor="#ffffff"
     bordercolor="#000000"
     borderopacity="0.25"
     inkscape:showpageshadow="2"
     inkscape:pageopacity="0.0"
     inkscape:pagecheckerboard="0"
     inkscape:deskcolor="#d1d1d1"
     showgrid="false" />
  <g
     inkscape:groupmode="layer"
     inkscape:label="Image"
     id="g8"
     transform="translate(-153.9558,-177.33364)"
     style="display:inline">
    <path
       style="display:inline;fill:#ffffff;fill-opacity:1;stroke-width:0.369464"
       d="m 227.46356,177.44531 c 6.6257,0.71107 12.62266,6.56657 13.40716,13.09091 0.3767,3.13281 -0.0534,6.18366 -1.25935,8.93293 -0.88829,2.02509 -2.49183,3.75457 -16.18131,17.45204 l -15.1953,15.2042 52.26813,-0.24724 c 31.77351,-0.15051 53.12778,-0.11254 54.46051,0.0961 6.85421,1.073 12.19464,6.32084 13.33621,13.10497 1.38265,8.21688 -4.63385,16.30288 -13.18919,17.7259 -1.33068,0.22133 -22.68356,0.46265 -54.45696,0.61545 l -52.26795,0.25124 15.1524,14.87607 c 17.93718,17.61006 17.34466,16.79679 17.37831,23.85278 0.0191,4.00436 -0.0399,4.34086 -1.16306,6.6305 -1.4625,2.98149 -4.78565,6.24293 -7.78146,7.63694 -1.93654,0.9011 -2.5649,1.00127 -6.42576,1.02424 -7.55964,0.0451 -4.63274,2.3858 -39.11249,-31.28064 -27.65809,-27.0057 -29.68841,-29.0735 -30.76985,-31.33787 -2.25541,-4.72247 -2.2763,-9.1045 -0.066,-13.84829 1.05996,-2.27494 3.07813,-4.36946 30.65478,-31.8142 27.3791,-27.24814 29.69537,-29.46026 31.93637,-30.50041 2.86286,-1.32876 5.9726,-1.82025 9.27486,-1.46585 z"
       id="path239" />
  </g>
</svg>
