<?xml version="1.0" encoding="UTF-8" standalone="no"?>
<!-- Created with Inkscape (http://www.inkscape.org/) -->

<svg
   version="1.1"
   id="svg2"
   width="174.54315"
   height="140.39604"
   viewBox="0 0 174.54315 140.39604"
   sodipodi:docname="right.png"
   xmlns:inkscape="http://www.inkscape.org/namespaces/inkscape"
   xmlns:sodipodi="http://sodipodi.sourceforge.net/DTD/sodipodi-0.dtd"
   xmlns="http://www.w3.org/2000/svg"
   xmlns:svg="http://www.w3.org/2000/svg">
  <defs
     id="defs6" />
  <sodipodi:namedview
     id="namedview4"
     pagecolor="#ffffff"
     bordercolor="#000000"
     borderopacity="0.25"
     inkscape:showpageshadow="2"
     inkscape:pageopacity="0.0"
     inkscape:pagecheckerboard="0"
     inkscape:deskcolor="#d1d1d1"
     showgrid="false" />
  <g
     inkscape:groupmode="layer"
     inkscape:label="Image"
     id="g8"
     transform="translate(-153.9558,-177.33364)"
     style="display:inline">
    <path
       style="display:inline;fill:#ffffff;fill-opacity:1;stroke-width:0.369464"
       d="m 254.655,317.608 c -6.62223,-0.74266 -12.5912,-6.62669 -13.34458,-13.15469 -0.36176,-3.13457 0.0829,-6.18334 1.30193,-8.92683 0.89793,-2.02083 2.5097,-3.74264 16.26434,-17.37468 l 15.26763,-15.13157 -52.26872,-0.002 c -31.77386,-0.001 -53.12771,-0.14079 -54.45943,-0.35577 -6.84901,-1.10567 -12.16436,-6.37891 -13.27357,-13.16841 -1.34345,-8.22338 4.71154,-16.2806 13.27357,-17.66281 1.33172,-0.21498 22.68551,-0.35448 54.45927,-0.35577 l 52.26856,-0.002 -15.0813,-14.94815 c -17.853,-17.69539 -17.26437,-16.87931 -17.26437,-23.93538 0,-4.0044 0.0606,-4.34062 1.19466,-6.62488 1.4767,-2.97448 4.81537,-6.22004 7.81779,-7.59974 1.94082,-0.89186 2.56965,-0.98903 6.43057,-0.99359 7.55977,-0.009 4.64407,-2.36368 38.96289,31.46679 27.529,27.13727 29.54944,29.21473 30.62007,31.48423 2.23286,4.73317 2.23286,9.11525 10e-6,13.84845 -1.07079,2.26986 -3.09893,4.35473 -30.80613,31.66766 -27.50872,27.11728 -29.83551,29.31833 -32.08145,30.34778 -2.86916,1.3151 -5.98121,1.79175 -9.28174,1.42161 z"
       id="path239" />
  </g>
</svg>
